<?xml version="1.0" standalone="no"?>
<!DOCTYPE svg PUBLIC "-//W3C//DTD SVG 20010904//EN"
 "http://www.w3.org/TR/2001/REC-SVG-20010904/DTD/svg10.dtd">
<svg version="1.0" xmlns="http://www.w3.org/2000/svg"
 width="196.000000pt" height="196.000000pt" viewBox="0 0 196.000000 196.000000"
 preserveAspectRatio="xMidYMid meet">

<g transform="translate(0.000000,196.000000) scale(0.100000,-0.100000)"
fill="#000000" stroke="none">
<path d="M335 1941 c-48 -22 -79 -54 -100 -103 -13 -32 -15 -100 -15 -448 l0
-410 -31 0 c-18 0 -47 -9 -66 -21 -63 -39 -63 -37 -63 -469 0 -427 -1 -421 58
-465 26 -20 45 -20 757 -23 715 -2 731 -2 763 18 18 11 41 34 52 52 19 32 20
52 20 476 0 394 -2 448 -17 479 -20 42 -66 73 -110 73 -33 0 -33 0 -33 50 l0
50 120 0 c107 0 122 -2 140 -20 19 -19 20 -33 20 -543 0 -501 -1 -525 -19
-541 -10 -9 -32 -21 -47 -25 -24 -6 -29 -13 -29 -37 0 -27 2 -29 41 -28 53 1
97 32 118 84 14 35 16 103 16 538 0 273 -5 515 -10 536 -5 22 -23 53 -39 70
l-31 31 -140 3 -140 4 0 261 c0 242 -2 265 -21 307 -11 25 -32 55 -47 68 -63
53 -56 52 -601 52 -471 0 -509 -2 -546 -19z m1059 -65 c18 -7 42 -26 54 -41
22 -27 22 -34 22 -381 l0 -354 -229 0 -229 0 -89 -60 -88 -60 -272 0 -273 0 0
400 c0 375 1 403 19 438 17 34 39 52 81 65 8 3 230 6 493 6 385 1 484 -2 511
-13z m225 -872 c21 -26 21 -37 21 -454 0 -406 -1 -429 -19 -451 l-19 -24 -710
-3 c-706 -2 -709 -2 -735 19 l-27 20 0 379 0 379 26 20 c26 20 38 21 364 21
l338 0 88 59 89 59 282 1 282 1 20 -26z"/>
<path d="M404 1635 c-3 -8 -3 -19 1 -25 8 -13 951 -14 959 -1 4 5 3 16 0 25
-5 14 -56 16 -480 16 -406 0 -475 -2 -480 -15z"/>
<path d="M411 1431 c-8 -5 -11 -16 -8 -25 6 -14 55 -16 481 -16 319 0 477 3
481 10 4 6 1 17 -5 25 -11 13 -82 15 -474 15 -253 0 -467 -4 -475 -9z"/>
<path d="M863 1223 c-455 -3 -463 -4 -463 -23 0 -20 7 -20 479 -20 489 0 522
3 476 37 -11 7 -21 12 -24 11 -3 -2 -214 -4 -468 -5z"/>
<path d="M830 671 c-5 -11 -10 -51 -10 -90 l0 -71 -71 0 c-39 0 -69 -4 -67 -9
5 -14 193 -240 200 -240 3 -1 52 54 107 122 l101 122 -75 3 -75 3 0 83 c0 92
-3 96 -65 96 -24 0 -38 -6 -45 -19z"/>
</g>
</svg>
