<?xml version="1.0" encoding="UTF-8"?>
<!DOCTYPE svg PUBLIC "-//W3C//DTD SVG 1.1//EN" "http://www.w3.org/Graphics/SVG/1.1/DTD/svg11.dtd">
<!-- Creator: CorelDRAW -->
<svg xmlns="http://www.w3.org/2000/svg" xml:space="preserve" width="6.82666in" height="6.82666in" style="shape-rendering:geometricPrecision; text-rendering:geometricPrecision; image-rendering:optimizeQuality; fill-rule:evenodd; clip-rule:evenodd"
viewBox="0 0 6.82666 6.82666"
 xmlns:xlink="http://www.w3.org/1999/xlink">
 <defs>
  <style type="text/css">
   <![CDATA[
    .fil0 {fill:none}
    .fil4 {fill:#545454;fill-rule:nonzero}
    .fil3 {fill:#717171;fill-rule:nonzero}
    .fil2 {fill:#A2A2A2;fill-rule:nonzero}
    .fil1 {fill:#BBBBBC;fill-rule:nonzero}
   ]]>
  </style>
 </defs>
 <g id="Layer_x0020_1">
  <metadata id="CorelCorpID_0Corel-Layer"/>
  <g id="_490377632">
   <rect id="_490377920" class="fil0" width="6.82666" height="6.82666"/>
   <rect id="_490377848" class="fil0" x="0.853331" y="0.853331" width="5.12" height="5.12"/>
  </g>
  <path class="fil1" d="M4.26035 2.54095c-0.0350787,-0.0341929 -0.0527323,-0.0561417 -0.0924213,-0.0567165 -0.0396496,-0.000602362 -0.0758268,0.0224882 -0.0919803,0.0587047 -0.279484,0.626669 -0.339677,1.38681 -0.19635,2.05827 -0.121843,0.322024 -0.293024,1.01927 -0.295154,1.0282 -0.178492,0.600512 0.429602,-1.00286 0.48535,-0.929189 0.630031,-0.306539 1.10044,-0.758941 1.39823,-1.3447 0.0173307,-0.0340669 0.0135118,-0.075126 -0.00987008,-0.105402 -0.0573465,-0.074311 -0.234602,-0.00854724 -0.327559,0.00261417 0.15139,-0.083626 0.325858,-0.211358 0.518614,-0.379776 0.0140157,-0.012248 0.0243346,-0.0282008 0.029685,-0.0460551 0.254016,-0.843772 0.137217,-1.66163 0.0953622,-1.89222 -0.00559055,-0.0309055 -0.0255787,-0.0573031 -0.0537205,-0.0711969 -0.0282047,-0.0138858 -0.0613071,-0.0135039 -0.0892087,0.000885827 -0.274114,0.141437 -0.52139,0.30987 -0.735035,0.500575 -0.0282244,0.0252362 -0.0396378,0.0643504 -0.0293583,0.100768 0.0162362,0.0578071 0.0893937,0.26976 0.0893937,0.26976 -0.037315,-0.0638543 -0.0946181,-0.204902 -0.17352,-0.212598 -0.130083,-0.0128189 -0.42361,0.463063 -0.490827,0.578134 -0.00922047,0.0157402 -0.0138937,0.0337362 -0.0134961,0.0519764 0.0100079,0.501303 0.296028,0.69439 -0.0181339,0.387953z"/>
  <path class="fil0" d="M5.7178 2.42507c-0.277996,0.204374 -0.358571,0.269472 -0.653839,0.266339"/>
  <path class="fil2" d="M5.4186 2.59119c-0.167472,0.224657 -0.626791,0.316744 -0.759496,0.356713 0.230594,-0.0201772 0.703669,-0.0765945 0.759496,-0.356713z"/>
  <path class="fil2" d="M5.45139 2.18335c-0.170406,0.243957 -0.542736,0.327358 -0.617409,0.356717 0.187453,-0.0201772 0.572028,-0.0765945 0.617409,-0.356717z"/>
  <path class="fil2" d="M5.72172 1.71343c0.0505551,-0.0358543 -0.511244,0.29078 -0.602071,0.262028 0.303236,0.0560984 0.365618,-0.0229961 0.602071,-0.262028z"/>
  <path class="fil2" d="M4.40256 2.10749c0.00472441,-0.0217283 0.31452,0.68039 0.339394,0.70852 -0.225378,-0.297476 -0.256539,-0.36576 -0.339394,-0.70852z"/>
  <path class="fil2" d="M4.73872 1.86157c-0.00118898,-0.0515433 0.0727677,0.597504 0.132846,0.643039 -0.163071,-0.293606 -0.164252,-0.349614 -0.132846,-0.643039z"/>
  <path class="fil0" d="M5.63894 1.16013c-0.609929,0.899228 -1.03495,1.83992 -1.60993,3.44985"/>
  <path class="fil2" d="M4.00194 4.60031c0.4315,-1.20819 0.889177,-2.38866 1.6133,-3.45625 -0.0853465,-0.0134213 -1.62939,3.46028 -1.6133,3.45625z"/>
  <path class="fil3" d="M2.78383 4.18527l-0.00570472 0 0 -0.142295c0.0813031,-0.024378 0.139646,-0.0901496 0.139646,-0.167646 0,-0.0983386 -0.093685,-0.177933 -0.20915,-0.177933l-0.937051 0c-0.115559,0 -0.20915,0.0795945 -0.20915,0.177933 0,0.0774961 0.0582441,0.143268 0.139646,0.167646l0 0.142295 -0.00579528 0c-0.288756,0 -0.522933,0.199134 -0.522933,0.444862l0 0.791736c0,0.245646 0.234177,0.444791 0.522933,0.444791l1.08756 0c0.288748,0 0.522831,-0.199146 0.522831,-0.444791l0 -0.791736c9.84252e-005,-0.245728 -0.234083,-0.444862 -0.522831,-0.444862z"/>
  <polygon class="fil4" points="1.17333,4.69333 1.17333,5.33333 3.30666,5.33333 3.30666,4.69333 "/>
  <path class="fil4" d="M2.77812 4.04298c0.0813031,-0.024378 0.139646,-0.0901496 0.139646,-0.167646 0,-0.0983386 -0.093685,-0.177933 -0.20915,-0.177933l-0.937051 0c-0.115559,0 -0.20915,0.0795945 -0.20915,0.177933 0,0.0774961 0.0582441,0.143268 0.139646,0.167646l1.07606 0z"/>
  <path class="fil2" d="M5.07631 1.4204c0.00582677,-0.0617047 0.00330315,0.588146 0.073563,0.652488 -0.200004,-0.234732 -0.162618,-0.328272 -0.073563,-0.652488z"/>
 </g>
</svg>
